<svg width="373" height="118" viewBox="0 0 373 118" fill="none" xmlns="http://www.w3.org/2000/svg">
<path fill-rule="evenodd" clip-rule="evenodd" d="M82.2988 81.5223C90.6435 72.8662 95.7825 61.0744 95.7825 48.0873C95.7825 21.5475 74.3227 0 47.8913 0C21.4599 0 0 21.5475 0 48.0873C0 62.2747 6.13238 75.0351 15.8774 83.84C15.8784 83.841 15.8793 83.842 15.8803 83.842C26.9869 94.984 36.2148 104.242 43.5642 111.615C46.5402 114.777 49.3931 114.778 52.1198 111.615L81.3361 82.4939C81.5282 82.3057 81.7184 82.1155 81.9076 81.9233L82.3096 81.5232L82.2988 81.5223ZM36.4839 29.3956H60.4388C61.0695 29.3956 61.58 29.8785 61.58 30.4757V32.6347C61.58 33.2309 61.0695 33.7148 60.4388 33.7148H36.4839C35.8561 33.7148 35.3437 33.229 35.3437 32.6347V30.4757C35.3437 29.8814 35.8561 29.3956 36.4839 29.3956ZM31.9213 36.9539H63.8613C66.1426 36.9539 67.2837 38.0339 67.2837 40.193V53.1505C67.2837 55.3096 65.0556 56.3226 63.8613 56.3226L31.9213 56.3897C29.64 56.3897 28.4988 55.3096 28.4988 53.1505V40.193C28.4988 38.0339 29.64 36.9539 31.9213 36.9539ZM21.654 38.0339C20.3976 38.0339 19.3727 39.0026 19.3727 40.193V48.8314C19.3727 50.0208 20.3976 50.9905 21.654 50.9905V38.0339ZM74.1285 38.0339V50.9905C75.3889 50.9905 76.4098 50.0208 76.4098 48.8314V40.193C76.4098 39.0026 75.3889 38.0339 74.1285 38.0339ZM32.4918 61.7879C34.6963 61.7879 36.4839 63.4799 36.4839 65.5671C36.4839 67.6542 34.6963 69.3462 32.4918 69.3462C30.2864 69.3462 28.4988 67.6542 28.4988 65.5671C28.4988 63.4799 30.2864 61.7879 32.4918 61.7879ZM63.2907 61.7879C65.4961 61.7879 67.2837 63.4799 67.2837 65.5671C67.2837 67.6542 65.4961 69.3462 63.2907 69.3462C61.0863 69.3462 59.2987 67.6542 59.2987 65.5671C59.2987 63.4799 61.0863 61.7879 63.2907 61.7879ZM33.0614 25.0764C25.575 25.0764 22.7952 27.4169 22.7952 33.7148V69.3462C22.7952 70.8145 23.2494 71.8728 23.9363 72.6543V75.8254C23.9363 77.6091 25.4736 79.0646 27.3577 79.0646H31.9213C33.8054 79.0646 35.3437 77.6091 35.3437 75.8254V74.7454H60.4388V75.8254C60.4388 77.6091 61.9771 79.0646 63.8613 79.0646H68.4248C70.309 79.0646 71.8463 77.6091 71.8463 75.8254V72.6524C72.5331 71.8729 72.9874 70.8135 72.9874 69.3462V34.7938C72.9874 30.0923 72.3715 25.0764 65.0024 25.0764H33.0614Z" fill="white"/>
<path d="M126.414 69.1869V35.8249L137.66 34.0137V45.7128H151.171V55.0725H137.66V69.0361C137.66 71.4012 138.075 73.2883 138.905 74.6974C139.736 76.1066 141.409 76.8112 143.925 76.8112C145.133 76.8112 146.378 76.6979 147.661 76.4712C148.944 76.2446 150.114 75.9299 151.171 75.5272L152.756 84.2828C151.397 84.8366 149.888 85.3148 148.228 85.7176C146.567 86.1203 144.529 86.3217 142.113 86.3217C139.044 86.3217 136.503 85.9064 134.49 85.076C132.477 84.2456 130.867 83.0881 129.659 81.6034C128.452 80.1193 127.609 78.3205 127.13 76.2071C126.653 74.0937 126.414 71.7536 126.414 69.1869ZM173.966 77.5651C175.073 77.5651 176.13 77.5401 177.137 77.4901C178.143 77.4396 178.948 77.364 179.552 77.2635V68.7346C179.099 68.6341 178.419 68.5332 177.514 68.4321C176.608 68.3315 175.778 68.2813 175.023 68.2813C173.966 68.2813 172.972 68.3444 172.041 68.4705C171.11 68.596 170.292 68.8348 169.588 69.1869C168.884 69.5397 168.33 70.0179 167.928 70.6217C167.525 71.2254 167.324 71.9802 167.324 72.8862C167.324 74.6468 167.915 75.8669 169.097 76.5462C170.28 77.2254 171.903 77.5651 173.966 77.5651ZM173.06 44.6564C176.381 44.6564 179.149 45.0338 181.363 45.7886C183.577 46.5435 185.351 47.6252 186.684 49.0337C188.018 50.4429 188.961 52.1539 189.515 54.1669C190.068 56.1798 190.345 58.419 190.345 60.8846V84.2828C188.735 84.6356 186.496 85.0508 183.628 85.5284C180.759 86.0067 177.287 86.2458 173.212 86.2458C170.645 86.2458 168.317 86.0195 166.23 85.5668C164.141 85.1135 162.342 84.3712 160.832 83.3397C159.323 82.3083 158.166 80.9622 157.361 79.3014C156.555 77.6413 156.153 75.6034 156.153 73.1878C156.153 70.8733 156.618 68.911 157.549 67.3008C158.48 65.6899 159.725 64.4066 161.286 63.4507C162.845 62.4948 164.632 61.803 166.645 61.3753C168.657 60.9476 170.746 60.7338 172.909 60.7338C174.369 60.7338 175.665 60.7965 176.797 60.922C177.928 61.0481 178.847 61.2117 179.552 61.4127V60.3564C179.552 58.444 178.973 56.909 177.815 55.7514C176.658 54.5945 174.645 54.0161 171.777 54.0161C169.865 54.0161 167.978 54.1544 166.116 54.431C164.255 54.7075 162.644 55.0974 161.286 55.6007L159.851 46.5435C160.505 46.3418 161.323 46.128 162.305 45.902C163.286 45.6753 164.355 45.474 165.512 45.2979C166.67 45.1219 167.89 44.9707 169.173 44.8446C170.456 44.7191 171.752 44.6564 173.06 44.6564ZM226.349 46.3927L224.462 55.6765C223.456 55.4249 222.273 55.1608 220.915 54.8842C219.556 54.607 218.097 54.4684 216.536 54.4684C215.832 54.4684 214.989 54.5314 214.008 54.6576C213.027 54.7831 212.285 54.9214 211.782 55.0725V85.4151H200.535V47.8265C202.548 47.1223 204.925 46.4555 207.667 45.8261C210.41 45.1974 213.467 44.883 216.839 44.883C217.443 44.883 218.172 44.9208 219.027 44.9963C219.883 45.0719 220.738 45.1724 221.594 45.2979C222.449 45.4241 223.304 45.5752 224.16 45.7512C225.016 45.9273 225.745 46.1411 226.349 46.3927ZM250.578 86.095C247.71 86.095 244.854 86.007 242.011 85.8309C239.168 85.6549 236.212 85.2396 233.142 84.5853V33.8629C235.557 33.4096 238.199 33.07 241.068 32.844C243.936 32.6173 246.603 32.504 249.069 32.504C252.389 32.504 255.446 32.7431 258.239 33.2214C261.032 33.699 263.435 34.5166 265.447 35.6741C267.46 36.8317 269.033 38.3538 270.165 40.2406C271.297 42.1274 271.864 44.4547 271.864 47.2225C271.864 51.3994 269.851 54.6954 265.825 57.1104C269.146 58.3684 271.41 60.0795 272.618 62.2435C273.826 64.4068 274.43 66.8471 274.43 69.5643C274.43 75.0493 272.43 79.1756 268.429 81.9434C264.429 84.7111 258.478 86.095 250.578 86.095ZM252.012 62.6209H244.615V76.1313C245.471 76.2318 246.402 76.3073 247.408 76.3579C248.415 76.4085 249.522 76.4338 250.729 76.4338C254.252 76.4338 257.095 75.9305 259.258 74.9241C261.422 73.9176 262.504 72.0558 262.504 69.3386C262.504 66.923 261.598 65.1995 259.786 64.168C257.975 63.1366 255.384 62.6209 252.012 62.6209ZM244.615 42.2411V53.6386H250.352C253.975 53.6386 256.566 53.1732 258.126 52.2423C259.686 51.3114 260.466 49.8142 260.466 47.7507C260.466 45.6372 259.661 44.1528 258.051 43.2974C256.441 42.4421 254.076 42.0144 250.956 42.0144C249.949 42.0144 248.867 42.0269 247.71 42.0519C246.552 42.0775 245.521 42.1406 244.615 42.2411ZM304.32 86.4725C300.646 86.4725 297.476 85.9564 294.81 84.9243C292.142 83.8929 289.941 82.4591 288.204 80.6229C286.469 78.786 285.185 76.597 284.355 74.0559C283.525 71.5148 283.109 68.7092 283.109 65.6393V33.1081H294.884V64.6588C294.884 66.7722 295.124 68.571 295.602 70.055C296.079 71.5398 296.733 72.7476 297.564 73.6785C298.394 74.6094 299.401 75.2762 300.583 75.679C301.766 76.081 303.062 76.2821 304.471 76.2821C307.339 76.2821 309.666 75.4017 311.453 73.641C313.239 71.8797 314.132 68.8856 314.132 64.6588V33.1081H325.907V65.6393C325.907 68.7092 325.479 71.5273 324.624 74.0934C323.769 76.6595 322.46 78.8609 320.699 80.6978C318.938 82.5346 316.698 83.9563 313.981 84.9627C311.264 85.9692 308.044 86.4725 304.32 86.4725ZM351.495 76.4338C353.155 76.4338 354.526 76.2952 355.608 76.0179C356.69 75.7414 357.558 75.3639 358.213 74.8856C358.866 74.408 359.319 73.8421 359.571 73.1878C359.822 72.5334 359.948 71.8039 359.948 70.9991C359.948 69.2877 359.143 67.8661 357.533 66.7341C355.922 65.6022 353.155 64.3819 349.23 63.0732C347.519 62.4695 345.808 61.7777 344.097 60.9979C342.387 60.2181 340.852 59.2369 339.493 58.0544C338.135 56.8719 337.028 55.4377 336.172 53.752C335.317 52.0662 334.889 50.0155 334.889 47.5999C334.889 45.1849 335.342 43.0087 336.247 41.0714C337.153 39.134 338.437 37.486 340.097 36.1274C341.757 34.7688 343.77 33.7246 346.135 32.9947C348.5 32.2649 351.167 31.8999 354.136 31.8999C357.658 31.8999 360.703 32.2773 363.269 33.0322C365.836 33.787 367.949 34.6174 369.609 35.5234L366.213 44.8072C364.754 44.0523 363.131 43.3855 361.344 42.8067C359.558 42.2286 357.407 41.9395 354.891 41.9395C352.073 41.9395 350.048 42.3294 348.814 43.1093C347.582 43.8891 346.966 45.0841 346.966 46.6943C346.966 47.6501 347.192 48.4552 347.645 49.1096C348.098 49.7639 348.74 50.3551 349.569 50.8833C350.4 51.4115 351.356 51.8895 352.438 52.3172C353.52 52.7449 354.715 53.1853 356.023 53.6386C358.74 54.6451 361.105 55.6388 363.118 56.6196C365.131 57.6011 366.804 58.7458 368.138 60.0539C369.472 61.3625 370.465 62.8975 371.119 64.6588C371.773 66.4201 372.1 68.5585 372.1 71.074C372.1 75.9552 370.39 79.7419 366.968 82.4341C363.546 85.1263 358.388 86.4725 351.495 86.4725C349.18 86.4725 347.091 86.3338 345.229 86.0565C343.368 85.78 341.72 85.4403 340.286 85.0376C338.851 84.6356 337.619 84.2079 336.587 83.7546C335.556 83.3019 334.688 82.8742 333.983 82.4715L337.305 73.1119C338.864 73.9672 340.789 74.7349 343.078 75.4149C345.368 76.0942 348.173 76.4338 351.495 76.4338Z" fill="white"/>
</svg>
