<?xml version="1.0" encoding="UTF-8" standalone="no"?>
<!-- Generator: Gravit.io -->
<svg xmlns="http://www.w3.org/2000/svg" xmlns:xlink="http://www.w3.org/1999/xlink" style="isolation:isolate" viewBox="648.401 764.005 369.252 119.152" width="369.252pt" height="119.152pt">
  <defs>
    <clipPath id="_clipPath_PJ17rml36q9IQ38F9PYZo6y480sr48M1">
      <rect x="648.401" y="764.005" width="369.252" height="119.152"></rect>
    </clipPath>
  </defs>
  <g clip-path="url(#_clipPath_PJ17rml36q9IQ38F9PYZo6y480sr48M1)">
    <clipPath id="_clipPath_coGyARuyzBMbhxBbX9NPIEoWKvmdZblB">
      <rect x="648.401" y="764.005" width="97.197" height="119.152" transform="matrix(1,0,0,1,0,0)" fill="rgb(255,255,255)"></rect>
    </clipPath>
    <g clip-path="url(#_clipPath_coGyARuyzBMbhxBbX9NPIEoWKvmdZblB)">
      <g>
        <path d=" M 731.916 846.732 C 740.384 837.948 745.599 825.982 745.599 812.803 C 745.599 785.871 723.822 764.005 697 764.005 C 670.178 764.005 648.401 785.871 648.401 812.803 C 648.401 827.2 654.624 840.149 664.513 849.084 C 664.514 849.085 664.515 849.086 664.516 849.086 Q 681.422 866.046 692.609 877.269 C 695.629 880.478 698.524 880.479 701.291 877.269 L 730.939 847.718 C 731.134 847.527 731.327 847.334 731.519 847.139 L 731.927 846.733 L 731.916 846.732 Z  M 685.424 793.835 L 709.733 793.835 C 710.373 793.835 710.891 794.325 710.891 794.931 L 710.891 797.122 C 710.891 797.727 710.373 798.218 709.733 798.218 L 685.424 798.218 C 684.787 798.218 684.267 797.725 684.267 797.122 L 684.267 794.931 C 684.267 794.328 684.787 793.835 685.424 793.835 L 685.424 793.835 Z  M 680.794 801.505 L 713.206 801.505 C 715.521 801.505 716.679 802.601 716.679 804.792 L 716.679 817.941 C 716.679 820.132 714.418 821.16 713.206 821.16 L 680.794 821.228 C 678.479 821.228 677.321 820.132 677.321 817.941 L 677.321 804.792 C 677.321 802.601 678.479 801.505 680.794 801.505 L 680.794 801.505 Z  M 670.375 802.601 C 669.1 802.601 668.06 803.584 668.06 804.792 L 668.06 813.558 C 668.06 814.765 669.1 815.749 670.375 815.749 L 670.375 802.601 L 670.375 802.601 Z  M 723.625 802.601 L 723.625 815.749 C 724.904 815.749 725.94 814.765 725.94 813.558 L 725.94 804.792 C 725.94 803.584 724.904 802.601 723.625 802.601 L 723.625 802.601 Z  M 681.373 826.706 C 683.61 826.706 685.424 828.423 685.424 830.541 C 685.424 832.659 683.61 834.376 681.373 834.376 C 679.135 834.376 677.321 832.659 677.321 830.541 C 677.321 828.423 679.135 826.706 681.373 826.706 L 681.373 826.706 Z  M 712.627 826.706 C 714.865 826.706 716.679 828.423 716.679 830.541 C 716.679 832.659 714.865 834.376 712.627 834.376 C 710.39 834.376 708.576 832.659 708.576 830.541 C 708.576 828.423 710.39 826.706 712.627 826.706 L 712.627 826.706 Z  M 681.951 789.452 C 674.354 789.452 671.533 791.827 671.533 798.218 L 671.533 834.376 C 671.533 835.866 671.994 836.94 672.691 837.733 L 672.691 840.951 C 672.691 842.761 674.251 844.238 676.163 844.238 L 680.794 844.238 C 682.706 844.238 684.267 842.761 684.267 840.951 L 684.267 839.855 L 709.733 839.855 L 709.733 840.951 C 709.733 842.761 711.294 844.238 713.206 844.238 L 717.837 844.238 C 719.749 844.238 721.309 842.761 721.309 840.951 L 721.309 837.731 C 722.006 836.94 722.467 835.865 722.467 834.376 L 722.467 799.313 C 722.467 794.542 721.842 789.452 714.364 789.452 L 681.951 789.452 L 681.951 789.452 Z " fill-rule="evenodd" fill="rgb(255,255,255)"></path>
      </g>
    </g>
    <path d=" M 886.591 853.316 L 886.591 853.316 Q 885.003 853.316 884.251 852.522 L 884.251 852.522 L 884.251 852.522 Q 883.499 851.728 883.499 849.973 L 883.499 849.973 L 883.499 798.072 L 883.499 798.072 Q 883.499 796.401 884.251 795.607 L 884.251 795.607 L 884.251 795.607 Q 885.003 794.813 886.591 794.813 L 886.591 794.813 L 901.551 794.813 L 901.551 794.813 Q 919.102 794.813 919.102 808.937 L 919.102 808.937 L 919.102 808.937 Q 919.102 818.298 911.58 822.727 L 911.58 822.727 L 911.664 823.062 L 911.664 823.062 Q 915.926 824.315 918.35 827.909 L 918.35 827.909 L 918.35 827.909 Q 920.773 831.503 920.773 836.852 L 920.773 836.852 L 920.773 836.852 Q 920.773 844.29 915.968 848.803 L 915.968 848.803 L 915.968 848.803 Q 911.162 853.316 901.802 853.316 L 901.802 853.316 L 886.591 853.316 Z  M 895.868 818.632 L 901.635 818.632 L 901.635 818.632 Q 904.309 818.632 905.604 816.919 L 905.604 816.919 L 905.604 816.919 Q 906.9 815.205 906.9 811.528 L 906.9 811.528 L 906.9 811.528 Q 906.9 807.934 905.688 806.388 L 905.688 806.388 L 905.688 806.388 Q 904.476 804.842 901.802 804.842 L 901.802 804.842 L 895.868 804.842 L 895.868 818.632 Z  M 895.868 843.203 L 902.22 843.203 L 902.22 843.203 Q 905.312 843.203 906.774 841.448 L 906.774 841.448 L 906.774 841.448 Q 908.237 839.693 908.237 835.682 L 908.237 835.682 L 908.237 835.682 Q 908.237 831.837 906.816 830.207 L 906.816 830.207 L 906.816 830.207 Q 905.396 828.578 902.22 828.578 L 902.22 828.578 L 895.868 828.578 L 895.868 843.203 Z  M 953.041 853.985 L 953.041 853.985 Q 943.597 853.985 938.248 849.304 L 938.248 849.304 L 938.248 849.304 Q 932.9 844.624 932.9 836.183 L 932.9 836.183 L 932.9 797.32 L 932.9 797.32 Q 932.9 794.646 937.747 794.646 L 937.747 794.646 L 941.09 794.646 L 941.09 794.646 Q 945.937 794.646 945.937 797.32 L 945.937 797.32 L 945.937 835.347 L 945.937 835.347 Q 945.937 838.774 947.86 840.905 L 947.86 840.905 L 947.86 840.905 Q 949.782 843.036 953.041 843.036 L 953.041 843.036 L 953.041 843.036 Q 956.217 843.036 958.181 840.863 L 958.181 840.863 L 958.181 840.863 Q 960.145 838.69 960.145 835.347 L 960.145 835.347 L 960.145 797.32 L 960.145 797.32 Q 960.145 794.646 964.993 794.646 L 964.993 794.646 L 968.252 794.646 L 968.252 794.646 Q 973.1 794.646 973.1 797.32 L 973.1 797.32 L 973.1 836.183 L 973.1 836.183 Q 973.1 844.624 967.793 849.304 L 967.793 849.304 L 967.793 849.304 Q 962.485 853.985 953.041 853.985 L 953.041 853.985 Z  M 999.434 853.985 L 999.434 853.985 Q 995.338 853.985 991.327 852.773 L 991.327 852.773 L 991.327 852.773 Q 987.315 851.561 985.476 849.472 L 985.476 849.472 L 985.476 849.472 Q 984.39 847.967 984.39 846.546 L 984.39 846.546 L 984.39 846.546 Q 984.39 844.206 985.644 841.783 L 985.644 841.783 L 985.644 841.783 Q 986.897 839.359 988.402 839.359 L 988.402 839.359 L 988.402 839.359 Q 989.07 839.359 990.533 840.195 L 990.533 840.195 L 990.533 840.195 Q 991.995 841.03 992.664 841.365 L 992.664 841.365 L 992.664 841.365 Q 995.923 843.036 998.431 843.036 L 998.431 843.036 L 998.431 843.036 Q 1001.105 843.036 1003.111 841.783 L 1003.111 841.783 L 1003.111 841.783 Q 1005.117 840.529 1005.117 837.52 L 1005.117 837.52 L 1005.117 837.52 Q 1005.117 834.344 1003.195 832.547 L 1003.195 832.547 L 1003.195 832.547 Q 1001.272 830.751 997.177 828.578 L 997.177 828.578 L 997.177 828.578 Q 990.909 824.984 988.026 821.139 L 988.026 821.139 L 988.026 821.139 Q 985.142 817.295 985.142 810.943 L 985.142 810.943 L 985.142 810.943 Q 985.142 805.845 987.399 802.042 L 987.399 802.042 L 987.399 802.042 Q 989.655 798.24 993.625 796.192 L 993.625 796.192 L 993.625 796.192 Q 997.595 794.144 1002.693 794.144 L 1002.693 794.144 L 1002.693 794.144 Q 1005.535 794.144 1008.711 795.022 L 1008.711 795.022 L 1008.711 795.022 Q 1011.886 795.899 1013.642 797.153 L 1013.642 797.153 L 1013.642 797.153 Q 1015.146 798.24 1015.146 800.078 L 1015.146 800.078 L 1015.146 800.078 Q 1015.146 802.251 1014.185 804.675 L 1014.185 804.675 L 1014.185 804.675 Q 1013.224 807.099 1011.803 807.099 L 1011.803 807.099 L 1011.803 807.099 Q 1011.134 807.099 1009.379 806.43 L 1009.379 806.43 L 1009.379 806.43 Q 1006.12 805.176 1003.947 805.176 L 1003.947 805.176 L 1003.947 805.176 Q 1000.437 805.176 999.141 806.681 L 999.141 806.681 L 999.141 806.681 Q 997.846 808.185 997.846 810.107 L 997.846 810.107 L 997.846 810.107 Q 997.846 813.116 999.434 814.662 L 999.434 814.662 L 999.434 814.662 Q 1001.022 816.208 1004.532 818.047 L 1004.532 818.047 L 1004.532 818.047 Q 1005.284 818.381 1006.788 819.217 L 1006.788 819.217 L 1006.788 819.217 Q 1012.555 822.56 1015.104 826.405 L 1015.104 826.405 L 1015.104 826.405 Q 1017.653 830.249 1017.653 836.517 L 1017.653 836.517 L 1017.653 836.517 Q 1017.653 841.198 1015.647 845.167 L 1015.647 845.167 L 1015.647 845.167 Q 1013.642 849.137 1009.546 851.561 L 1009.546 851.561 L 1009.546 851.561 Q 1005.451 853.985 999.434 853.985 L 999.434 853.985 Z  M 787.363 853.901 L 787.363 853.901 Q 783.352 853.901 780.51 851.352 L 780.51 851.352 L 780.51 851.352 Q 777.669 848.803 777.669 842.869 L 777.669 842.869 L 777.669 816.71 L 775.496 816.71 L 775.496 816.71 Q 774.493 816.71 774.033 815.999 L 774.033 815.999 L 774.033 815.999 Q 773.573 815.289 773.573 813.701 L 773.573 813.701 L 773.573 812.615 L 773.573 812.615 Q 773.573 811.027 774.033 810.316 L 774.033 810.316 L 774.033 810.316 Q 774.493 809.606 775.496 809.606 L 775.496 809.606 L 777.669 809.606 L 778.755 801.081 L 778.755 801.081 Q 778.922 798.992 781.931 798.992 L 781.931 798.992 L 783.268 798.992 L 783.268 798.992 Q 786.277 798.992 786.277 801.081 L 786.277 801.081 L 786.277 809.606 L 791.124 809.606 L 791.124 809.606 Q 792.127 809.606 792.545 810.316 L 792.545 810.316 L 792.545 810.316 Q 792.963 811.027 792.963 812.615 L 792.963 812.615 L 792.963 813.701 L 792.963 813.701 Q 792.963 815.289 792.545 815.999 L 792.545 815.999 L 792.545 815.999 Q 792.127 816.71 791.124 816.71 L 791.124 816.71 L 786.277 816.71 L 786.277 842.201 L 786.277 842.201 Q 786.277 844.791 787.029 845.794 L 787.029 845.794 L 787.029 845.794 Q 787.781 846.797 789.202 846.797 L 789.202 846.797 L 789.202 846.797 Q 790.038 846.797 790.79 846.588 L 790.79 846.588 L 790.79 846.588 Q 791.542 846.379 791.877 846.379 L 791.877 846.379 L 791.877 846.379 Q 792.712 846.379 793.255 848.176 L 793.255 848.176 L 793.255 848.176 Q 793.799 849.973 793.799 850.976 L 793.799 850.976 L 793.799 850.976 Q 793.799 852.564 791.709 853.232 L 791.709 853.232 L 791.709 853.232 Q 789.62 853.901 787.363 853.901 L 787.363 853.901 Z  M 816.623 853.901 L 816.623 853.901 Q 811.023 853.901 807.805 850.474 L 807.805 850.474 L 807.805 850.474 Q 804.588 847.048 804.588 840.863 L 804.588 840.863 L 804.588 840.863 Q 804.588 832.756 810.438 829.163 L 810.438 829.163 L 810.438 829.163 Q 816.288 825.569 826.234 825.485 L 826.234 825.485 L 826.234 822.309 L 826.234 822.309 Q 826.234 819.551 824.646 817.838 L 824.646 817.838 L 824.646 817.838 Q 823.058 816.125 819.548 816.125 L 819.548 816.125 L 819.548 816.125 Q 816.957 816.125 814.993 816.752 L 814.993 816.752 L 814.993 816.752 Q 813.029 817.378 811.441 818.172 L 811.441 818.172 L 811.441 818.172 Q 809.853 818.966 809.519 818.966 L 809.519 818.966 L 809.519 818.966 Q 808.599 818.966 807.387 817.044 L 807.387 817.044 L 807.387 817.044 Q 806.176 815.122 806.176 814.119 L 806.176 814.119 L 806.176 814.119 Q 806.176 812.949 808.14 811.779 L 808.14 811.779 L 808.14 811.779 Q 810.104 810.609 813.28 809.815 L 813.28 809.815 L 813.28 809.815 Q 816.455 809.021 819.882 809.021 L 819.882 809.021 L 819.882 809.021 Q 827.153 809.021 830.956 812.531 L 830.956 812.531 L 830.956 812.531 Q 834.759 816.041 834.759 822.226 L 834.759 822.226 L 834.759 840.278 L 834.759 840.278 Q 834.759 845.878 835.26 848.385 L 835.26 848.385 L 835.26 848.385 Q 835.761 850.892 835.761 851.227 L 835.761 851.227 L 835.761 851.227 Q 835.761 852.397 833.714 852.898 L 833.714 852.898 L 833.714 852.898 Q 831.666 853.4 829.911 853.4 L 829.911 853.4 L 829.911 853.4 Q 828.658 853.4 828.073 852.271 L 828.073 852.271 L 828.073 852.271 Q 827.487 851.143 826.902 848.636 L 826.902 848.636 L 826.902 848.636 Q 822.807 853.901 816.623 853.901 L 816.623 853.901 Z  M 818.712 846.546 L 818.712 846.546 Q 823.392 846.546 826.234 842.368 L 826.234 842.368 L 826.234 831.921 L 826.234 831.921 Q 820.133 832.004 816.581 833.801 L 816.581 833.801 L 816.581 833.801 Q 813.029 835.598 813.029 840.529 L 813.029 840.529 L 813.029 840.529 Q 813.029 846.546 818.712 846.546 L 818.712 846.546 Z  M 855.827 853.483 L 855.827 853.483 Q 851.983 853.483 851.983 851.394 L 851.983 851.394 L 851.983 822.727 L 851.983 822.727 Q 851.983 817.211 851.481 814.704 L 851.481 814.704 L 851.481 814.704 Q 850.98 812.197 850.98 811.862 L 850.98 811.862 L 850.98 811.862 Q 850.98 810.692 853.069 810.191 L 853.069 810.191 L 853.069 810.191 Q 855.159 809.689 856.914 809.689 L 856.914 809.689 L 856.914 809.689 Q 858.167 809.689 858.711 810.901 L 858.711 810.901 L 858.711 810.901 Q 859.254 812.113 859.546 813.492 L 859.546 813.492 L 859.546 813.492 Q 859.839 814.871 859.923 815.373 L 859.923 815.373 L 859.923 815.373 Q 863.6 809.021 868.197 809.021 L 868.197 809.021 L 868.197 809.021 Q 872.459 809.021 872.459 812.698 L 872.459 812.698 L 872.459 812.698 Q 872.459 814.203 871.916 816.125 L 871.916 816.125 L 871.916 816.125 Q 871.372 818.047 870.62 818.047 L 870.62 818.047 L 870.62 818.047 Q 870.202 818.047 869.074 817.629 L 869.074 817.629 L 869.074 817.629 Q 867.946 817.211 866.609 817.211 L 866.609 817.211 L 866.609 817.211 Q 864.603 817.211 862.848 818.883 L 862.848 818.883 L 862.848 818.883 Q 861.093 820.554 860.508 822.059 L 860.508 822.059 L 860.508 851.394 L 860.508 851.394 Q 860.508 853.483 856.747 853.483 L 856.747 853.483 L 855.827 853.483 Z " fill="rgb(255,255,255)"></path>
  </g>
</svg>
