<?xml version="1.0" encoding="UTF-8" standalone="no"?>
<!-- Generator: Gravit.io -->
<svg xmlns="http://www.w3.org/2000/svg" xmlns:xlink="http://www.w3.org/1999/xlink" style="isolation:isolate" viewBox="450.205 132.844 590.693 620.441" width="590.693pt" height="620.441pt">
  <defs>
    <clipPath id="_clipPath_jEoPIr3oo4qBHuLgrl142uJUihdV2WgL">
      <rect x="450.205" y="132.844" width="590.693" height="620.441"></rect>
    </clipPath>
  </defs>
  <g clip-path="url(#_clipPath_jEoPIr3oo4qBHuLgrl142uJUihdV2WgL)">
    <clipPath id="_clipPath_wOQLfIqhzscsRub8wHE7zUm65HwSdqmS">
      <rect x="603.744" y="132.844" width="280.512" height="343.872" transform="matrix(1,0,0,1,0,0)" fill="rgb(255,255,255)"></rect>
    </clipPath>
    <g clip-path="url(#_clipPath_wOQLfIqhzscsRub8wHE7zUm65HwSdqmS)">
      <g>
        <path d=" M 844.768 371.596 C 869.207 346.244 884.256 311.711 884.256 273.676 C 884.256 195.949 821.409 132.844 744 132.844 C 666.59 132.844 603.744 195.949 603.744 273.676 C 603.744 315.225 621.701 352.595 650.242 378.382 C 650.244 378.385 650.247 378.387 650.25 378.39 Q 699.042 427.336 731.328 459.724 C 740.043 468.986 748.397 468.989 756.384 459.724 L 841.947 374.439 C 842.51 373.888 843.068 373.331 843.622 372.771 L 844.8 371.596 L 844.768 371.596 Z  M 710.592 218.933 L 780.749 218.933 C 782.594 218.933 784.09 220.349 784.09 222.095 L 784.09 228.42 C 784.09 230.166 782.594 231.582 780.749 231.582 L 710.592 231.582 C 708.755 231.582 707.251 230.159 707.251 228.42 L 707.251 222.095 C 707.251 220.356 708.755 218.933 710.592 218.933 L 710.592 218.933 Z  M 697.229 241.069 L 790.771 241.069 C 797.453 241.069 800.794 244.231 800.794 250.556 L 800.794 288.502 C 800.794 294.827 794.269 297.793 790.771 297.793 L 697.229 297.989 C 690.547 297.989 687.206 294.827 687.206 288.502 L 687.206 250.556 C 687.206 244.231 690.547 241.069 697.229 241.069 L 697.229 241.069 Z  M 667.162 244.231 C 663.48 244.231 660.48 247.071 660.48 250.556 L 660.48 275.853 C 660.48 279.338 663.48 282.178 667.162 282.178 L 667.162 244.231 L 667.162 244.231 Z  M 820.838 244.231 L 820.838 282.178 C 824.53 282.178 827.52 279.338 827.52 275.853 L 827.52 250.556 C 827.52 247.071 824.53 244.231 820.838 244.231 L 820.838 244.231 Z  M 698.899 313.8 C 705.357 313.8 710.592 318.756 710.592 324.868 C 710.592 330.981 705.357 335.936 698.899 335.936 C 692.441 335.936 687.206 330.981 687.206 324.868 C 687.206 318.756 692.441 313.8 698.899 313.8 L 698.899 313.8 Z  M 789.101 313.8 C 795.559 313.8 800.794 318.756 800.794 324.868 C 800.794 330.981 795.559 335.936 789.101 335.936 C 782.643 335.936 777.408 330.981 777.408 324.868 C 777.408 318.756 782.643 313.8 789.101 313.8 L 789.101 313.8 Z  M 700.57 206.284 C 678.644 206.284 670.502 213.14 670.502 231.582 L 670.502 335.936 C 670.502 340.237 671.832 343.336 673.843 345.622 L 673.843 354.909 C 673.843 360.134 678.347 364.396 683.866 364.396 L 697.229 364.396 C 702.748 364.396 707.251 360.134 707.251 354.909 L 707.251 351.747 L 780.749 351.747 L 780.749 354.909 C 780.749 360.134 785.252 364.396 790.771 364.396 L 804.134 364.396 C 809.653 364.396 814.157 360.134 814.157 354.909 L 814.157 345.619 C 816.168 343.336 817.498 340.234 817.498 335.936 L 817.498 234.744 C 817.498 220.973 815.694 206.284 794.112 206.284 L 700.57 206.284 L 700.57 206.284 Z " fill-rule="evenodd" fill="rgb(255,255,255)"></path>
      </g>
    </g>
    <path d=" M 721.045 666.682 L 721.045 666.682 Q 717.075 666.682 715.194 664.697 L 715.194 664.697 L 715.194 664.697 Q 713.314 662.713 713.314 658.325 L 713.314 658.325 L 713.314 528.573 L 713.314 528.573 Q 713.314 524.394 715.194 522.409 L 715.194 522.409 L 715.194 522.409 Q 717.075 520.425 721.045 520.425 L 721.045 520.425 L 758.445 520.425 L 758.445 520.425 Q 802.322 520.425 802.322 555.735 L 802.322 555.735 L 802.322 555.735 Q 802.322 579.137 783.518 590.21 L 783.518 590.21 L 783.727 591.046 L 783.727 591.046 Q 794.383 594.18 800.442 603.165 L 800.442 603.165 L 800.442 603.165 Q 806.501 612.149 806.501 625.521 L 806.501 625.521 L 806.501 625.521 Q 806.501 644.117 794.487 655.4 L 794.487 655.4 L 794.487 655.4 Q 782.473 666.682 759.072 666.682 L 759.072 666.682 L 721.045 666.682 L 721.045 666.682 Z  M 744.237 579.972 L 758.654 579.972 L 758.654 579.972 Q 765.34 579.972 768.579 575.689 L 768.579 575.689 L 768.579 575.689 Q 771.817 571.406 771.817 562.213 L 771.817 562.213 L 771.817 562.213 Q 771.817 553.228 768.788 549.363 L 768.788 549.363 L 768.788 549.363 Q 765.758 545.497 759.072 545.497 L 759.072 545.497 L 744.237 545.497 L 744.237 579.972 L 744.237 579.972 Z  M 744.237 641.401 L 760.117 641.401 L 760.117 641.401 Q 767.847 641.401 771.504 637.013 L 771.504 637.013 L 771.504 637.013 Q 775.16 632.625 775.16 622.596 L 775.16 622.596 L 775.16 622.596 Q 775.16 612.985 771.608 608.911 L 771.608 608.911 L 771.608 608.911 Q 768.056 604.836 760.117 604.836 L 760.117 604.836 L 744.237 604.836 L 744.237 641.401 L 744.237 641.401 Z  M 883.27 668.354 L 883.27 668.354 Q 859.659 668.354 846.287 656.653 L 846.287 656.653 L 846.287 656.653 Q 832.915 644.953 832.915 623.85 L 832.915 623.85 L 832.915 526.693 L 832.915 526.693 Q 832.915 520.007 845.034 520.007 L 845.034 520.007 L 853.391 520.007 L 853.391 520.007 Q 865.51 520.007 865.51 526.693 L 865.51 526.693 L 865.51 621.76 L 865.51 621.76 Q 865.51 630.327 870.315 635.655 L 870.315 635.655 L 870.315 635.655 Q 875.121 640.983 883.27 640.983 L 883.27 640.983 L 883.27 640.983 Q 891.209 640.983 896.119 635.55 L 896.119 635.55 L 896.119 635.55 Q 901.03 630.118 901.03 621.76 L 901.03 621.76 L 901.03 526.693 L 901.03 526.693 Q 901.03 520.007 913.148 520.007 L 913.148 520.007 L 921.297 520.007 L 921.297 520.007 Q 933.415 520.007 933.415 526.693 L 933.415 526.693 L 933.415 623.85 L 933.415 623.85 Q 933.415 644.953 920.147 656.653 L 920.147 656.653 L 920.147 656.653 Q 906.88 668.354 883.27 668.354 L 883.27 668.354 L 883.27 668.354 Z  M 995.349 668.354 L 995.349 668.354 Q 985.111 668.354 975.082 665.324 L 975.082 665.324 L 975.082 665.324 Q 965.053 662.295 960.456 657.071 L 960.456 657.071 L 960.456 657.071 Q 957.74 653.31 957.74 649.758 L 957.74 649.758 L 957.74 649.758 Q 957.74 643.908 960.874 637.849 L 960.874 637.849 L 960.874 637.849 Q 964.008 631.789 967.769 631.789 L 967.769 631.789 L 967.769 631.789 Q 969.44 631.789 973.097 633.879 L 973.097 633.879 L 973.097 633.879 Q 976.753 635.968 978.425 636.804 L 978.425 636.804 L 978.425 636.804 Q 986.573 640.983 992.842 640.983 L 992.842 640.983 L 992.842 640.983 Q 999.528 640.983 1004.542 637.849 L 1004.542 637.849 L 1004.542 637.849 Q 1009.557 634.715 1009.557 627.193 L 1009.557 627.193 L 1009.557 627.193 Q 1009.557 619.253 1004.751 614.761 L 1004.751 614.761 L 1004.751 614.761 Q 999.946 610.269 989.708 604.836 L 989.708 604.836 L 989.708 604.836 Q 974.037 595.852 966.829 586.241 L 966.829 586.241 L 966.829 586.241 Q 959.62 576.629 959.62 560.75 L 959.62 560.75 L 959.62 560.75 Q 959.62 548.005 965.262 538.498 L 965.262 538.498 L 965.262 538.498 Q 970.903 528.991 980.828 523.872 L 980.828 523.872 L 980.828 523.872 Q 990.752 518.753 1003.498 518.753 L 1003.498 518.753 L 1003.498 518.753 Q 1010.602 518.753 1018.541 520.947 L 1018.541 520.947 L 1018.541 520.947 Q 1026.481 523.141 1030.869 526.275 L 1030.869 526.275 L 1030.869 526.275 Q 1034.63 528.991 1034.63 533.588 L 1034.63 533.588 L 1034.63 533.588 Q 1034.63 539.02 1032.227 545.079 L 1032.227 545.079 L 1032.227 545.079 Q 1029.824 551.139 1026.272 551.139 L 1026.272 551.139 L 1026.272 551.139 Q 1024.6 551.139 1020.213 549.467 L 1020.213 549.467 L 1020.213 549.467 Q 1012.064 546.333 1006.632 546.333 L 1006.632 546.333 L 1006.632 546.333 Q 997.856 546.333 994.618 550.094 L 994.618 550.094 L 994.618 550.094 Q 991.379 553.855 991.379 558.661 L 991.379 558.661 L 991.379 558.661 Q 991.379 566.182 995.349 570.048 L 995.349 570.048 L 995.349 570.048 Q 999.319 573.913 1008.094 578.51 L 1008.094 578.51 L 1008.094 578.51 Q 1009.975 579.346 1013.736 581.435 L 1013.736 581.435 L 1013.736 581.435 Q 1028.152 589.793 1034.525 599.404 L 1034.525 599.404 L 1034.525 599.404 Q 1040.898 609.015 1040.898 624.686 L 1040.898 624.686 L 1040.898 624.686 Q 1040.898 636.386 1035.883 646.311 L 1035.883 646.311 L 1035.883 646.311 Q 1030.869 656.235 1020.631 662.295 L 1020.631 662.295 L 1020.631 662.295 Q 1010.393 668.354 995.349 668.354 L 995.349 668.354 L 995.349 668.354 Z  M 484.68 668.145 L 484.68 668.145 Q 474.651 668.145 467.547 661.772 L 467.547 661.772 L 467.547 661.772 Q 460.443 655.4 460.443 640.565 L 460.443 640.565 L 460.443 575.167 L 455.011 575.167 L 455.011 575.167 Q 452.503 575.167 451.354 573.391 L 451.354 573.391 L 451.354 573.391 Q 450.205 571.615 450.205 567.645 L 450.205 567.645 L 450.205 564.929 L 450.205 564.929 Q 450.205 560.959 451.354 559.183 L 451.354 559.183 L 451.354 559.183 Q 452.503 557.407 455.011 557.407 L 455.011 557.407 L 460.443 557.407 L 463.159 536.095 L 463.159 536.095 Q 463.577 530.872 471.099 530.872 L 471.099 530.872 L 474.442 530.872 L 474.442 530.872 Q 481.964 530.872 481.964 536.095 L 481.964 536.095 L 481.964 557.407 L 494.082 557.407 L 494.082 557.407 Q 496.59 557.407 497.634 559.183 L 497.634 559.183 L 497.634 559.183 Q 498.679 560.959 498.679 564.929 L 498.679 564.929 L 498.679 567.645 L 498.679 567.645 Q 498.679 571.615 497.634 573.391 L 497.634 573.391 L 497.634 573.391 Q 496.59 575.167 494.082 575.167 L 494.082 575.167 L 481.964 575.167 L 481.964 638.893 L 481.964 638.893 Q 481.964 645.371 483.844 647.878 L 483.844 647.878 L 483.844 647.878 Q 485.725 650.385 489.277 650.385 L 489.277 650.385 L 489.277 650.385 Q 491.366 650.385 493.247 649.863 L 493.247 649.863 L 493.247 649.863 Q 495.127 649.34 495.963 649.34 L 495.963 649.34 L 495.963 649.34 Q 498.052 649.34 499.41 653.833 L 499.41 653.833 L 499.41 653.833 Q 500.769 658.325 500.769 660.832 L 500.769 660.832 L 500.769 660.832 Q 500.769 664.802 495.545 666.473 L 495.545 666.473 L 495.545 666.473 Q 490.322 668.145 484.68 668.145 L 484.68 668.145 L 484.68 668.145 Z  M 553.927 668.145 L 553.927 668.145 Q 539.928 668.145 531.884 659.578 L 531.884 659.578 L 531.884 659.578 Q 523.839 651.012 523.839 635.55 L 523.839 635.55 L 523.839 635.55 Q 523.839 615.283 538.465 606.299 L 538.465 606.299 L 538.465 606.299 Q 553.091 597.314 577.955 597.105 L 577.955 597.105 L 577.955 589.166 L 577.955 589.166 Q 577.955 582.271 573.985 577.987 L 573.985 577.987 L 573.985 577.987 Q 570.015 573.704 561.24 573.704 L 561.24 573.704 L 561.24 573.704 Q 554.763 573.704 549.852 575.271 L 549.852 575.271 L 549.852 575.271 Q 544.942 576.838 540.973 578.823 L 540.973 578.823 L 540.973 578.823 Q 537.003 580.808 536.167 580.808 L 536.167 580.808 L 536.167 580.808 Q 533.869 580.808 530.839 576.003 L 530.839 576.003 L 530.839 576.003 Q 527.809 571.197 527.809 568.69 L 527.809 568.69 L 527.809 568.69 Q 527.809 565.764 532.719 562.839 L 532.719 562.839 L 532.719 562.839 Q 537.629 559.914 545.569 557.929 L 545.569 557.929 L 545.569 557.929 Q 553.509 555.944 562.075 555.944 L 562.075 555.944 L 562.075 555.944 Q 580.253 555.944 589.76 564.72 L 589.76 564.72 L 589.76 564.72 Q 599.267 573.495 599.267 588.957 L 599.267 588.957 L 599.267 634.088 L 599.267 634.088 Q 599.267 648.087 600.52 654.355 L 600.52 654.355 L 600.52 654.355 Q 601.774 660.623 601.774 661.459 L 601.774 661.459 L 601.774 661.459 Q 601.774 664.384 596.655 665.638 L 596.655 665.638 L 596.655 665.638 Q 591.536 666.891 587.148 666.891 L 587.148 666.891 L 587.148 666.891 Q 584.014 666.891 582.552 664.071 L 582.552 664.071 L 582.552 664.071 Q 581.089 661.25 579.626 654.982 L 579.626 654.982 L 579.626 654.982 Q 569.388 668.145 553.927 668.145 L 553.927 668.145 L 553.927 668.145 Z  M 559.15 649.758 L 559.15 649.758 Q 570.851 649.758 577.955 639.311 L 577.955 639.311 L 577.955 613.194 L 577.955 613.194 Q 562.702 613.403 553.822 617.895 L 553.822 617.895 L 553.822 617.895 Q 544.942 622.387 544.942 634.715 L 544.942 634.715 L 544.942 634.715 Q 544.942 649.758 559.15 649.758 L 559.15 649.758 L 559.15 649.758 Z  M 648.037 667.1 L 648.037 667.1 Q 638.426 667.1 638.426 661.877 L 638.426 661.877 L 638.426 590.21 L 638.426 590.21 Q 638.426 576.42 637.172 570.152 L 637.172 570.152 L 637.172 570.152 Q 635.919 563.884 635.919 563.048 L 635.919 563.048 L 635.919 563.048 Q 635.919 560.123 641.142 558.869 L 641.142 558.869 L 641.142 558.869 Q 646.366 557.616 650.753 557.616 L 650.753 557.616 L 650.753 557.616 Q 653.888 557.616 655.246 560.645 L 655.246 560.645 L 655.246 560.645 Q 656.604 563.675 657.335 567.123 L 657.335 567.123 L 657.335 567.123 Q 658.066 570.57 658.275 571.824 L 658.275 571.824 L 658.275 571.824 Q 667.469 555.944 678.96 555.944 L 678.96 555.944 L 678.96 555.944 Q 689.616 555.944 689.616 565.138 L 689.616 565.138 L 689.616 565.138 Q 689.616 568.899 688.258 573.704 L 688.258 573.704 L 688.258 573.704 Q 686.9 578.51 685.02 578.51 L 685.02 578.51 L 685.02 578.51 Q 683.975 578.51 681.154 577.465 L 681.154 577.465 L 681.154 577.465 Q 678.334 576.42 674.99 576.42 L 674.99 576.42 L 674.99 576.42 Q 669.976 576.42 665.588 580.599 L 665.588 580.599 L 665.588 580.599 Q 661.2 584.778 659.738 588.539 L 659.738 588.539 L 659.738 661.877 L 659.738 661.877 Q 659.738 667.1 650.336 667.1 L 650.336 667.1 L 648.037 667.1 L 648.037 667.1 Z " fill="rgb(255,255,255)"></path>
    <path d=" M 869.441 722.278 L 869.441 722.278 Q 870.388 722.278 870.837 722.751 L 870.837 722.751 L 870.837 722.751 Q 871.285 723.225 871.285 724.272 L 871.285 724.272 L 871.285 739.127 L 871.285 739.127 Q 871.285 740.274 869.765 741.196 L 869.765 741.196 L 869.765 741.196 Q 868.244 742.118 866.001 742.617 L 866.001 742.617 L 866.001 742.617 Q 863.758 743.115 861.714 743.115 L 861.714 743.115 L 861.714 743.115 Q 854.735 743.115 851.42 738.753 L 851.42 738.753 L 851.42 738.753 Q 848.105 734.391 848.105 725.169 L 848.105 725.169 L 848.105 725.169 Q 848.105 716.196 851.445 711.809 L 851.445 711.809 L 851.445 711.809 Q 854.785 707.422 861.814 707.422 L 861.814 707.422 L 861.814 707.422 Q 864.057 707.422 866.151 707.945 L 866.151 707.945 L 866.151 707.945 Q 868.244 708.469 869.541 709.291 L 869.541 709.291 L 869.541 709.291 Q 870.837 710.114 870.837 710.961 L 870.837 710.961 L 870.837 710.961 Q 870.837 711.61 870.313 712.706 L 870.313 712.706 L 870.313 712.706 Q 869.79 713.803 869.042 714.625 L 869.042 714.625 L 869.042 714.625 Q 868.294 715.448 867.696 715.448 L 867.696 715.448 L 867.696 715.448 Q 867.497 715.448 866.649 715.074 L 866.649 715.074 L 866.649 715.074 Q 865.802 714.7 864.755 714.426 L 864.755 714.426 L 864.755 714.426 Q 863.708 714.152 862.262 714.152 L 862.262 714.152 L 862.262 714.152 Q 859.072 714.152 857.576 716.844 L 857.576 716.844 L 857.576 716.844 Q 856.081 719.536 856.081 725.219 L 856.081 725.219 L 856.081 725.219 Q 856.081 731.301 857.502 733.818 L 857.502 733.818 L 857.502 733.818 Q 858.922 736.336 861.714 736.336 L 861.714 736.336 L 861.714 736.336 Q 862.91 736.336 863.758 736.136 L 863.758 736.136 L 863.758 728.858 L 861.215 728.858 L 861.215 728.858 Q 860.468 728.858 860.119 728.26 L 860.119 728.26 L 860.119 728.26 Q 859.77 727.661 859.77 726.365 L 859.77 726.365 L 859.77 724.77 L 859.77 724.77 Q 859.77 723.474 860.119 722.876 L 860.119 722.876 L 860.119 722.876 Q 860.468 722.278 861.215 722.278 L 861.215 722.278 L 869.441 722.278 L 869.441 722.278 Z  M 880.662 742.816 L 880.662 742.816 Q 877.77 742.816 877.77 741.221 L 877.77 741.221 L 877.77 709.316 L 877.77 709.316 Q 877.77 707.721 880.662 707.721 L 880.662 707.721 L 882.656 707.721 L 882.656 707.721 Q 885.597 707.721 885.597 709.316 L 885.597 709.316 L 885.597 724.172 L 885.796 724.222 L 892.526 708.668 L 892.526 708.668 Q 892.775 708.12 893.374 707.921 L 893.374 707.921 L 893.374 707.921 Q 893.972 707.721 895.068 707.721 L 895.068 707.721 L 897.81 707.721 L 897.81 707.721 Q 900.552 707.721 900.552 708.469 L 900.552 708.469 L 900.552 708.469 Q 900.552 708.818 900.253 709.516 L 900.253 709.516 L 892.526 724.92 L 900.801 741.021 L 900.801 741.021 Q 901.1 741.57 901.1 742.068 L 901.1 742.068 L 901.1 742.068 Q 901.1 742.816 898.508 742.816 L 898.508 742.816 L 895.218 742.816 L 895.218 742.816 Q 894.071 742.816 893.423 742.617 L 893.423 742.617 L 893.423 742.617 Q 892.775 742.417 892.526 741.869 L 892.526 741.869 L 885.746 726.216 L 885.597 726.266 L 885.597 741.221 L 885.597 741.221 Q 885.597 742.816 882.656 742.816 L 882.656 742.816 L 880.662 742.816 L 880.662 742.816 Z  M 907.535 742.816 L 907.535 742.816 Q 904.544 742.816 904.544 741.221 L 904.544 741.221 L 904.544 709.815 L 904.544 709.815 Q 904.544 708.768 905.018 708.294 L 905.018 708.294 L 905.018 708.294 Q 905.492 707.821 906.538 707.821 L 906.538 707.821 L 915.163 707.821 L 915.163 707.821 Q 919.101 707.821 922.117 710.089 L 922.117 710.089 L 922.117 710.089 Q 925.133 712.357 925.133 718.738 L 925.133 718.738 L 925.133 718.738 Q 925.133 723.125 923.388 725.543 L 923.388 725.543 L 923.388 725.543 Q 921.643 727.961 919.5 728.808 L 919.5 728.808 L 919.5 728.808 Q 917.356 729.656 915.661 729.656 L 915.661 729.656 L 912.221 729.656 L 912.221 741.221 L 912.221 741.221 Q 912.221 742.816 909.23 742.816 L 909.23 742.816 L 907.535 742.816 L 907.535 742.816 Z  M 912.172 723.225 L 914.814 723.225 L 914.814 723.225 Q 915.96 723.225 916.808 722.228 L 916.808 722.228 L 916.808 722.228 Q 917.655 721.231 917.655 718.738 L 917.655 718.738 L 917.655 718.738 Q 917.655 716.295 916.808 715.323 L 916.808 715.323 L 916.808 715.323 Q 915.96 714.351 914.814 714.351 L 914.814 714.351 L 912.172 714.351 L 912.172 723.225 L 912.172 723.225 Z  M 734.618 753.285 L 734.618 753.285 Q 730.73 753.285 730.73 751.49 L 730.73 751.49 L 730.73 751.49 Q 730.73 750.842 731.054 749.82 L 731.054 749.82 L 731.054 749.82 Q 731.378 748.798 731.926 748.798 L 731.926 748.798 L 731.926 748.798 Q 732.076 748.798 732.525 748.923 L 732.525 748.923 L 732.525 748.923 Q 732.973 749.047 733.621 749.047 L 733.621 749.047 L 733.621 749.047 Q 735.316 749.047 735.316 746.007 L 735.316 746.007 L 735.316 717.791 L 735.316 717.791 Q 735.316 716.545 737.609 716.545 L 737.609 716.545 L 738.108 716.545 L 738.108 716.545 Q 740.401 716.545 740.401 717.791 L 740.401 717.791 L 740.401 746.256 L 740.401 746.256 Q 740.401 750.044 738.681 751.665 L 738.681 751.665 L 738.681 751.665 Q 736.961 753.285 734.618 753.285 L 734.618 753.285 L 734.618 753.285 Z  M 737.908 713.354 L 737.908 713.354 Q 735.266 713.354 735.266 712.108 L 735.266 712.108 L 735.266 708.868 L 735.266 708.868 Q 735.266 707.621 737.908 707.621 L 737.908 707.621 L 737.908 707.621 Q 740.501 707.621 740.501 708.868 L 740.501 708.868 L 740.501 712.108 L 740.501 712.108 Q 740.501 713.354 737.908 713.354 L 737.908 713.354 L 737.908 713.354 Z  M 754.762 743.065 L 754.762 743.065 Q 751.422 743.065 749.503 741.021 L 749.503 741.021 L 749.503 741.021 Q 747.584 738.978 747.584 735.289 L 747.584 735.289 L 747.584 735.289 Q 747.584 730.453 751.073 728.31 L 751.073 728.31 L 751.073 728.31 Q 754.563 726.166 760.495 726.116 L 760.495 726.116 L 760.495 724.222 L 760.495 724.222 Q 760.495 722.577 759.548 721.555 L 759.548 721.555 L 759.548 721.555 Q 758.601 720.533 756.507 720.533 L 756.507 720.533 L 756.507 720.533 Q 754.962 720.533 753.79 720.907 L 753.79 720.907 L 753.79 720.907 Q 752.619 721.281 751.672 721.754 L 751.672 721.754 L 751.672 721.754 Q 750.724 722.228 750.525 722.228 L 750.525 722.228 L 750.525 722.228 Q 749.977 722.228 749.254 721.081 L 749.254 721.081 L 749.254 721.081 Q 748.531 719.935 748.531 719.336 L 748.531 719.336 L 748.531 719.336 Q 748.531 718.638 749.702 717.941 L 749.702 717.941 L 749.702 717.941 Q 750.874 717.243 752.768 716.769 L 752.768 716.769 L 752.768 716.769 Q 754.663 716.295 756.707 716.295 L 756.707 716.295 L 756.707 716.295 Q 761.044 716.295 763.312 718.389 L 763.312 718.389 L 763.312 718.389 Q 765.58 720.483 765.58 724.172 L 765.58 724.172 L 765.58 734.94 L 765.58 734.94 Q 765.58 738.28 765.879 739.775 L 765.879 739.775 L 765.879 739.775 Q 766.178 741.271 766.178 741.47 L 766.178 741.47 L 766.178 741.47 Q 766.178 742.168 764.957 742.467 L 764.957 742.467 L 764.957 742.467 Q 763.735 742.766 762.689 742.766 L 762.689 742.766 L 762.689 742.766 Q 761.941 742.766 761.592 742.093 L 761.592 742.093 L 761.592 742.093 Q 761.243 741.42 760.894 739.925 L 760.894 739.925 L 760.894 739.925 Q 758.451 743.065 754.762 743.065 L 754.762 743.065 L 754.762 743.065 Z  M 756.009 738.678 L 756.009 738.678 Q 758.8 738.678 760.495 736.186 L 760.495 736.186 L 760.495 729.955 L 760.495 729.955 Q 756.856 730.004 754.737 731.076 L 754.737 731.076 L 754.737 731.076 Q 752.619 732.148 752.619 735.089 L 752.619 735.089 L 752.619 735.089 Q 752.619 738.678 756.009 738.678 L 756.009 738.678 L 756.009 738.678 Z  M 773.162 742.716 L 773.162 742.716 Q 772.813 742.716 772.439 741.694 L 772.439 741.694 L 772.439 741.694 Q 772.065 740.673 772.065 739.825 L 772.065 739.825 L 772.065 739.825 Q 772.065 739.526 772.165 739.227 L 772.165 739.227 L 782.633 720.882 L 773.86 720.882 L 773.86 720.882 Q 772.763 720.882 772.763 719.087 L 772.763 719.087 L 772.763 718.439 L 772.763 718.439 Q 772.763 716.644 773.86 716.644 L 773.86 716.644 L 787.967 716.644 L 787.967 716.644 Q 788.266 716.644 788.615 717.716 L 788.615 717.716 L 788.615 717.716 Q 788.964 718.788 788.964 719.586 L 788.964 719.586 L 788.964 719.586 Q 788.964 719.885 788.865 720.184 L 788.865 720.184 L 778.446 738.479 L 788.017 738.479 L 788.017 738.479 Q 789.114 738.479 789.114 740.274 L 789.114 740.274 L 789.114 740.922 L 789.114 740.922 Q 789.114 742.716 788.017 742.716 L 788.017 742.716 L 773.162 742.716 L 773.162 742.716 Z  M 801.431 743.065 L 801.431 743.065 Q 799.088 743.065 797.344 741.395 L 797.344 741.395 L 797.344 741.395 Q 795.599 739.725 794.652 736.684 L 794.652 736.684 L 794.652 736.684 Q 793.704 733.644 793.704 729.556 L 793.704 729.556 L 793.704 729.556 Q 793.704 723.275 795.923 719.785 L 795.923 719.785 L 795.923 719.785 Q 798.141 716.295 801.93 716.295 L 801.93 716.295 L 801.93 716.295 Q 804.821 716.295 806.865 718.539 L 806.865 718.539 L 806.865 706.425 L 806.865 706.425 Q 806.865 705.179 809.059 705.179 L 809.059 705.179 L 809.856 705.179 L 809.856 705.179 Q 812.05 705.179 812.05 706.425 L 812.05 706.425 L 812.05 734.94 L 812.05 734.94 Q 812.05 738.18 812.324 739.7 L 812.324 739.7 L 812.324 739.7 Q 812.598 741.221 812.598 741.52 L 812.598 741.52 L 812.598 741.52 Q 812.598 742.118 811.252 742.442 L 811.252 742.442 L 811.252 742.442 Q 809.906 742.766 808.909 742.766 L 808.909 742.766 L 808.909 742.766 Q 808.061 742.766 807.737 741.944 L 807.737 741.944 L 807.737 741.944 Q 807.413 741.121 807.164 739.376 L 807.164 739.376 L 807.164 739.376 Q 806.117 741.171 804.647 742.118 L 804.647 742.118 L 804.647 742.118 Q 803.176 743.065 801.431 743.065 L 801.431 743.065 L 801.431 743.065 Z  M 802.877 738.728 L 802.877 738.728 Q 803.974 738.728 805.021 737.931 L 805.021 737.931 L 805.021 737.931 Q 806.067 737.133 806.865 735.687 L 806.865 735.687 L 806.865 722.427 L 806.865 722.427 Q 805.37 720.633 803.326 720.633 L 803.326 720.633 L 803.326 720.633 Q 801.132 720.633 800.06 722.851 L 800.06 722.851 L 800.06 722.851 Q 798.989 725.069 798.989 729.556 L 798.989 729.556 L 798.989 729.556 Q 798.989 734.042 799.961 736.385 L 799.961 736.385 L 799.961 736.385 Q 800.933 738.728 802.877 738.728 L 802.877 738.728 L 802.877 738.728 Z  M 834.088 716.545 L 834.088 716.545 Q 836.232 716.545 836.232 717.442 L 836.232 717.442 L 836.232 717.442 Q 836.232 717.641 836.082 718.339 L 836.082 718.339 L 826.71 751.989 L 826.71 751.989 Q 826.361 753.036 824.467 753.036 L 824.467 753.036 L 823.47 753.036 L 823.47 753.036 Q 821.526 753.036 821.526 752.188 L 821.526 752.188 L 821.526 752.188 Q 821.526 751.889 821.675 751.341 L 821.675 751.341 L 824.716 741.321 L 817.737 718.439 L 817.737 718.439 Q 817.537 717.841 817.537 717.492 L 817.537 717.492 L 817.537 717.492 Q 817.537 716.545 819.631 716.545 L 819.631 716.545 L 820.778 716.545 L 820.778 716.545 Q 822.572 716.545 822.772 717.442 L 822.772 717.442 L 825.912 729.955 L 825.912 729.955 Q 826.162 730.952 826.86 734.441 L 826.86 734.441 L 827.109 734.441 L 827.508 732.547 L 828.006 729.955 L 831.147 717.392 L 831.147 717.392 Q 831.346 716.545 833.24 716.545 L 833.24 716.545 L 834.088 716.545 L 834.088 716.545 Z  M 567.035 742.816 L 567.035 742.816 Q 564.792 742.816 564.792 741.57 L 564.792 741.57 L 564.792 709.466 L 564.792 709.466 Q 564.792 707.821 566.337 707.821 L 566.337 707.821 L 574.014 707.821 L 574.014 707.821 Q 578.85 707.821 581.342 709.964 L 581.342 709.964 L 581.342 709.964 Q 583.835 712.108 583.835 716.944 L 583.835 716.944 L 583.835 716.944 Q 583.835 722.926 579.199 725.368 L 579.199 725.368 L 579.199 725.568 L 579.199 725.568 Q 580.246 726.116 581.043 727.562 L 581.043 727.562 L 581.043 727.562 Q 581.841 729.007 582.638 731.45 L 582.638 731.45 L 585.729 741.171 L 585.729 741.171 Q 585.779 741.37 585.829 741.545 L 585.829 741.545 L 585.829 741.545 Q 585.879 741.719 585.879 741.869 L 585.879 741.869 L 585.879 741.869 Q 585.879 742.816 583.586 742.816 L 583.586 742.816 L 582.489 742.816 L 582.489 742.816 Q 581.641 742.816 581.043 742.567 L 581.043 742.567 L 581.043 742.567 Q 580.445 742.318 580.295 741.869 L 580.295 741.869 L 577.404 732.148 L 577.404 732.148 Q 576.656 729.805 575.684 728.958 L 575.684 728.958 L 575.684 728.958 Q 574.712 728.11 572.818 728.11 L 572.818 728.11 L 570.226 728.11 L 570.226 741.57 L 570.226 741.57 Q 570.226 742.816 567.982 742.816 L 567.982 742.816 L 567.035 742.816 L 567.035 742.816 Z  M 570.176 723.324 L 574.563 723.324 L 574.563 723.324 Q 576.158 723.324 577.28 721.704 L 577.28 721.704 L 577.28 721.704 Q 578.401 720.084 578.401 717.691 L 578.401 717.691 L 578.401 717.691 Q 578.401 714.999 577.304 713.703 L 577.304 713.703 L 577.304 713.703 Q 576.208 712.407 574.313 712.407 L 574.313 712.407 L 570.176 712.407 L 570.176 723.324 L 570.176 723.324 Z  M 600.091 743.065 L 600.091 743.065 Q 595.305 743.065 592.812 739.651 L 592.812 739.651 L 592.812 739.651 Q 590.32 736.236 590.32 729.755 L 590.32 729.755 L 590.32 729.755 Q 590.32 723.275 592.837 719.785 L 592.837 719.785 L 592.837 719.785 Q 595.355 716.295 600.091 716.295 L 600.091 716.295 L 600.091 716.295 Q 604.876 716.295 607.344 719.76 L 607.344 719.76 L 607.344 719.76 Q 609.811 723.225 609.811 729.755 L 609.811 729.755 L 609.811 729.755 Q 609.811 736.236 607.344 739.651 L 607.344 739.651 L 607.344 739.651 Q 604.876 743.065 600.091 743.065 L 600.091 743.065 L 600.091 743.065 Z  M 600.041 738.828 L 600.041 738.828 Q 602.384 738.828 603.455 736.635 L 603.455 736.635 L 603.455 736.635 Q 604.527 734.441 604.527 729.705 L 604.527 729.705 L 604.527 729.705 Q 604.527 724.92 603.455 722.726 L 603.455 722.726 L 603.455 722.726 Q 602.384 720.533 600.041 720.533 L 600.041 720.533 L 600.041 720.533 Q 597.748 720.533 596.701 722.726 L 596.701 722.726 L 596.701 722.726 Q 595.654 724.92 595.654 729.705 L 595.654 729.705 L 595.654 729.705 Q 595.654 734.491 596.701 736.66 L 596.701 736.66 L 596.701 736.66 Q 597.748 738.828 600.041 738.828 L 600.041 738.828 L 600.041 738.828 Z  M 615.399 742.716 L 615.399 742.716 Q 615.05 742.716 614.676 741.694 L 614.676 741.694 L 614.676 741.694 Q 614.302 740.673 614.302 739.825 L 614.302 739.825 L 614.302 739.825 Q 614.302 739.526 614.402 739.227 L 614.402 739.227 L 624.871 720.882 L 616.097 720.882 L 616.097 720.882 Q 615 720.882 615 719.087 L 615 719.087 L 615 718.439 L 615 718.439 Q 615 716.644 616.097 716.644 L 616.097 716.644 L 630.205 716.644 L 630.205 716.644 Q 630.504 716.644 630.853 717.716 L 630.853 717.716 L 630.853 717.716 Q 631.202 718.788 631.202 719.586 L 631.202 719.586 L 631.202 719.586 Q 631.202 719.885 631.102 720.184 L 631.102 720.184 L 620.683 738.479 L 630.255 738.479 L 630.255 738.479 Q 631.351 738.479 631.351 740.274 L 631.351 740.274 L 631.351 740.922 L 631.351 740.922 Q 631.351 742.716 630.255 742.716 L 630.255 742.716 L 615.399 742.716 L 615.399 742.716 Z  M 655.483 741.221 L 655.483 741.221 Q 655.832 741.869 655.832 742.068 L 655.832 742.068 L 655.832 742.068 Q 655.832 742.467 655.334 742.642 L 655.334 742.642 L 655.334 742.642 Q 654.835 742.816 653.689 742.816 L 653.689 742.816 L 652.193 742.816 L 652.193 742.816 Q 651.346 742.816 651.022 742.691 L 651.022 742.691 L 651.022 742.691 Q 650.698 742.567 650.399 742.068 L 650.399 742.068 L 643.619 730.004 L 643.22 730.004 L 643.22 741.57 L 643.22 741.57 Q 643.22 742.816 641.077 742.816 L 641.077 742.816 L 640.229 742.816 L 640.229 742.816 Q 638.036 742.816 638.036 741.57 L 638.036 741.57 L 638.036 706.425 L 638.036 706.425 Q 638.036 705.179 640.229 705.179 L 640.229 705.179 L 641.077 705.179 L 641.077 705.179 Q 643.22 705.179 643.22 706.425 L 643.22 706.425 L 643.22 728.26 L 643.469 728.26 L 649.85 717.293 L 649.85 717.293 Q 650.1 716.844 650.573 716.694 L 650.573 716.694 L 650.573 716.694 Q 651.047 716.545 651.944 716.545 L 651.944 716.545 L 653.39 716.545 L 653.39 716.545 Q 655.334 716.545 655.334 717.243 L 655.334 717.243 L 655.334 717.243 Q 655.334 717.592 654.935 718.29 L 654.935 718.29 L 648.454 729.057 L 655.483 741.221 L 655.483 741.221 Z  M 669.994 738.579 L 669.994 738.579 Q 670.493 738.579 670.842 739.601 L 670.842 739.601 L 670.842 739.601 Q 671.191 740.623 671.191 741.321 L 671.191 741.321 L 671.191 741.321 Q 671.191 742.218 669.969 742.642 L 669.969 742.642 L 669.969 742.642 Q 668.748 743.065 667.402 743.065 L 667.402 743.065 L 667.402 743.065 Q 665.059 743.065 663.439 741.57 L 663.439 741.57 L 663.439 741.57 Q 661.819 740.074 661.819 736.585 L 661.819 736.585 L 661.819 725.867 L 660.573 726.615 L 660.573 726.615 Q 660.224 726.864 660.024 726.864 L 660.024 726.864 L 660.024 726.864 Q 659.526 726.864 659.526 726.066 L 659.526 726.066 L 659.526 725.568 L 659.526 725.568 Q 659.526 724.571 660.573 723.823 L 660.573 723.823 L 661.819 723.075 L 661.819 706.425 L 661.819 706.425 Q 661.819 705.179 664.062 705.179 L 664.062 705.179 L 664.61 705.179 L 664.61 705.179 Q 666.904 705.179 666.904 706.425 L 666.904 706.425 L 666.904 720.084 L 668.848 718.938 L 668.848 718.938 Q 669.197 718.738 669.396 718.738 L 669.396 718.738 L 669.396 718.738 Q 669.895 718.738 669.895 719.486 L 669.895 719.486 L 669.895 719.984 L 669.895 719.984 Q 669.895 721.131 668.848 721.729 L 668.848 721.729 L 666.904 722.876 L 666.904 736.336 L 666.904 736.336 Q 666.904 738.828 668.549 738.828 L 668.549 738.828 L 668.549 738.828 Q 669.047 738.828 669.421 738.703 L 669.421 738.703 L 669.421 738.703 Q 669.795 738.579 669.994 738.579 L 669.994 738.579 L 669.994 738.579 Z  M 682.362 743.065 L 682.362 743.065 Q 679.022 743.065 677.102 741.021 L 677.102 741.021 L 677.102 741.021 Q 675.183 738.978 675.183 735.289 L 675.183 735.289 L 675.183 735.289 Q 675.183 730.453 678.673 728.31 L 678.673 728.31 L 678.673 728.31 Q 682.162 726.166 688.095 726.116 L 688.095 726.116 L 688.095 724.222 L 688.095 724.222 Q 688.095 722.577 687.147 721.555 L 687.147 721.555 L 687.147 721.555 Q 686.2 720.533 684.106 720.533 L 684.106 720.533 L 684.106 720.533 Q 682.561 720.533 681.39 720.907 L 681.39 720.907 L 681.39 720.907 Q 680.218 721.281 679.271 721.754 L 679.271 721.754 L 679.271 721.754 Q 678.324 722.228 678.124 722.228 L 678.124 722.228 L 678.124 722.228 Q 677.576 722.228 676.853 721.081 L 676.853 721.081 L 676.853 721.081 Q 676.13 719.935 676.13 719.336 L 676.13 719.336 L 676.13 719.336 Q 676.13 718.638 677.302 717.941 L 677.302 717.941 L 677.302 717.941 Q 678.473 717.243 680.368 716.769 L 680.368 716.769 L 680.368 716.769 Q 682.262 716.295 684.306 716.295 L 684.306 716.295 L 684.306 716.295 Q 688.643 716.295 690.911 718.389 L 690.911 718.389 L 690.911 718.389 Q 693.179 720.483 693.179 724.172 L 693.179 724.172 L 693.179 734.94 L 693.179 734.94 Q 693.179 738.28 693.478 739.775 L 693.478 739.775 L 693.478 739.775 Q 693.778 741.271 693.778 741.47 L 693.778 741.47 L 693.778 741.47 Q 693.778 742.168 692.556 742.467 L 692.556 742.467 L 692.556 742.467 Q 691.335 742.766 690.288 742.766 L 690.288 742.766 L 690.288 742.766 Q 689.54 742.766 689.191 742.093 L 689.191 742.093 L 689.191 742.093 Q 688.842 741.42 688.493 739.925 L 688.493 739.925 L 688.493 739.925 Q 686.051 743.065 682.362 743.065 L 682.362 743.065 L 682.362 743.065 Z  M 683.608 738.678 L 683.608 738.678 Q 686.4 738.678 688.095 736.186 L 688.095 736.186 L 688.095 729.955 L 688.095 729.955 Q 684.455 730.004 682.337 731.076 L 682.337 731.076 L 682.337 731.076 Q 680.218 732.148 680.218 735.089 L 680.218 735.089 L 680.218 735.089 Q 680.218 738.678 683.608 738.678 L 683.608 738.678 L 683.608 738.678 Z  M 708.039 743.065 L 708.039 743.065 Q 705.696 743.065 703.951 741.395 L 703.951 741.395 L 703.951 741.395 Q 702.207 739.725 701.259 736.684 L 701.259 736.684 L 701.259 736.684 Q 700.312 733.644 700.312 729.556 L 700.312 729.556 L 700.312 729.556 Q 700.312 723.275 702.531 719.785 L 702.531 719.785 L 702.531 719.785 Q 704.749 716.295 708.538 716.295 L 708.538 716.295 L 708.538 716.295 Q 711.429 716.295 713.473 718.539 L 713.473 718.539 L 713.473 706.425 L 713.473 706.425 Q 713.473 705.179 715.666 705.179 L 715.666 705.179 L 716.464 705.179 L 716.464 705.179 Q 718.657 705.179 718.657 706.425 L 718.657 706.425 L 718.657 734.94 L 718.657 734.94 Q 718.657 738.18 718.932 739.7 L 718.932 739.7 L 718.932 739.7 Q 719.206 741.221 719.206 741.52 L 719.206 741.52 L 719.206 741.52 Q 719.206 742.118 717.86 742.442 L 717.86 742.442 L 717.86 742.442 Q 716.514 742.766 715.517 742.766 L 715.517 742.766 L 715.517 742.766 Q 714.669 742.766 714.345 741.944 L 714.345 741.944 L 714.345 741.944 Q 714.021 741.121 713.772 739.376 L 713.772 739.376 L 713.772 739.376 Q 712.725 741.171 711.255 742.118 L 711.255 742.118 L 711.255 742.118 Q 709.784 743.065 708.039 743.065 L 708.039 743.065 L 708.039 743.065 Z  M 709.485 738.728 L 709.485 738.728 Q 710.582 738.728 711.628 737.931 L 711.628 737.931 L 711.628 737.931 Q 712.675 737.133 713.473 735.687 L 713.473 735.687 L 713.473 722.427 L 713.473 722.427 Q 711.977 720.633 709.933 720.633 L 709.933 720.633 L 709.933 720.633 Q 707.74 720.633 706.668 722.851 L 706.668 722.851 L 706.668 722.851 Q 705.596 725.069 705.596 729.556 L 705.596 729.556 L 705.596 729.556 Q 705.596 734.042 706.569 736.385 L 706.569 736.385 L 706.569 736.385 Q 707.541 738.728 709.485 738.728 L 709.485 738.728 L 709.485 738.728 Z " fill="rgb(255,255,255)"></path>
  </g>
</svg>
