<svg width="22" height="22" viewBox="0 0 22 22" fill="none" xmlns="http://www.w3.org/2000/svg">
<path d="M22 5.50001C22 3.98336 20.7049 2.75003 19.1124 2.75003H7.01263C5.42011 2.75003 4.125 3.98336 4.125 5.50001V8.23526H5.50001V19.2501H8.25V8.23526H17.875V19.2501H20.625V8.23526H22C22 8.23522 22 5.50001 22 5.50001Z" fill="black"/>
<path d="M0 16.5H1.37501V19.25H2.75003V16.5H4.12504V9.62501H0V16.5Z" fill="black"/>
<path d="M15.8125 15.125H10.3125C9.55317 15.125 8.93748 15.7407 8.93748 16.5C8.93748 17.2594 9.55317 17.875 10.3125 17.875H11V19.2501H15.125V17.875H15.8125C16.5718 17.875 17.1875 17.2594 17.1875 16.5C17.1875 15.7407 16.5718 15.125 15.8125 15.125Z" fill="black"/>
</svg>
