<svg width="23" height="22" viewBox="0 0 23 22" fill="none" xmlns="http://www.w3.org/2000/svg">
<path d="M2.39582 10.0834V7.33335C2.66032 7.33335 2.875 7.128 2.875 6.875C2.875 6.622 2.66032 6.41666 2.39582 6.41666C1.07431 6.41666 0 7.44516 0 8.70835V9.62501C0 10.3831 0.644943 11 1.4375 11H2.39582C2.66032 11 2.875 10.7947 2.875 10.5417C2.875 10.2887 2.66032 10.0834 2.39582 10.0834Z" fill="black"/>
<path d="M20.6042 6.41666C20.3397 6.41666 20.125 6.622 20.125 6.875C20.125 7.128 20.3397 7.33335 20.6042 7.33335V10.0834C20.3397 10.0834 20.125 10.2887 20.125 10.5417C20.125 10.7947 20.3397 11 20.6042 11H21.5625C22.3551 11 23 10.3831 23 9.62501V8.70835C23 7.44516 21.9257 6.41666 20.6042 6.41666Z" fill="black"/>
<path d="M8.14582 19.25C7.88132 19.25 7.66664 19.4553 7.66664 19.7083H4.79164C4.79164 19.4553 4.57696 19.25 4.31246 19.25C4.04796 19.25 3.83327 19.4553 3.83327 19.7083V20.625C3.83327 21.3831 4.47822 22 5.27077 22H7.1875C7.98006 22 8.625 21.3831 8.625 20.625V19.7083C8.625 19.4553 8.41032 19.25 8.14582 19.25Z" fill="black"/>
<path d="M18.6875 19.25C18.423 19.25 18.2083 19.4553 18.2083 19.7083H15.3333C15.3333 19.4553 15.1186 19.25 14.8541 19.25C14.5896 19.25 14.375 19.4553 14.375 19.7083V20.625C14.375 21.3831 15.0199 22 15.8125 22H17.7292C18.5217 22 19.1667 21.3831 19.1667 20.625V19.7083C19.1667 19.4553 18.952 19.25 18.6875 19.25Z" fill="black"/>
<path d="M18.6875 0H4.31251C2.99095 0 1.91669 1.0285 1.91669 2.29165V17.875C1.91669 19.1382 2.99099 20.1667 4.31251 20.1667H18.6875C20.0091 20.1667 21.0833 19.1382 21.0833 17.875V2.29165C21.0833 1.0285 20.0091 0 18.6875 0ZM6.22919 1.83335H16.7709C17.5634 1.83335 18.2084 2.45025 18.2084 3.20835C18.2084 3.96645 17.5634 4.58335 16.7709 4.58335H6.22919C5.43663 4.58335 4.79169 3.96645 4.79169 3.20835C4.79169 2.45025 5.43663 1.83335 6.22919 1.83335ZM6.22919 17.4167C5.43663 17.4167 4.79169 16.7997 4.79169 16.0417C4.79169 15.2836 5.43663 14.6667 6.22919 14.6667C7.02174 14.6667 7.66669 15.2836 7.66669 16.0417C7.66669 16.7997 7.0217 17.4167 6.22919 17.4167ZM16.7708 17.4167C15.9783 17.4167 15.3333 16.7997 15.3333 16.0417C15.3333 15.2836 15.9783 14.6667 16.7708 14.6667C17.5634 14.6667 18.2083 15.2836 18.2083 16.0417C18.2083 16.7997 17.5634 17.4167 16.7708 17.4167ZM19.1667 11.4583C19.1667 12.2164 18.5217 12.8333 17.7292 12.8333H5.27082C4.47827 12.8333 3.83332 12.2164 3.83332 11.4583V6.875C3.83332 6.1169 4.47827 5.5 5.27082 5.5H17.7291C18.5217 5.5 19.1666 6.1169 19.1666 6.875V11.4583H19.1667Z" fill="black"/>
</svg>
