<svg width="23" height="23" viewBox="0 0 23 23" fill="none" xmlns="http://www.w3.org/2000/svg">
<path d="M23 5.75001C23 4.16443 21.646 2.87503 19.9811 2.87503H7.33139C5.66648 2.87503 4.3125 4.16443 4.3125 5.75001V8.6096H5.75001V20.1251H8.62499V8.6096H18.6875V20.1251H21.5625V8.6096H23C23 8.60955 23 5.75001 23 5.75001Z" fill="black"/>
<path d="M6.67572e-06 17.25H1.43752V20.125H2.87503V17.25H4.31255V10.0625H6.67572e-06V17.25Z" fill="black"/>
<path d="M16.5313 15.8125H10.7812C9.9874 15.8125 9.34373 16.4562 9.34373 17.25C9.34373 18.0439 9.9874 18.6875 10.7812 18.6875H11.5V20.1251H15.8125V18.6875H16.5312C17.3251 18.6875 17.9687 18.0439 17.9687 17.25C17.9687 16.4562 17.3251 15.8125 16.5313 15.8125Z" fill="black"/>
</svg>
